<svg width="192" height="40" viewBox="0 0 202 61" fill="none" xmlns="http://www.w3.org/2000/svg">
<path d="M52.7311 47.7776C52.4623 47.7776 52.3281 47.6434 52.3281 47.3746V19.9712C52.3281 19.7024 52.4623 19.5682 52.7311 19.5682H55.7939C56.0627 19.5682 56.1968 19.7024 56.1968 19.9712V47.3746C56.1968 47.6434 56.0627 47.7776 55.7939 47.7776H52.7311ZM63.1993 47.7776C62.931 47.7776 62.7963 47.6434 62.7963 47.3746V19.9712C62.7963 19.7024 62.931 19.5682 63.1993 19.5682H66.2621C66.5309 19.5682 66.6651 19.7024 66.6651 19.9712V44.2716C66.6651 44.3792 66.7191 44.4328 66.8263 44.4328H80.7295C80.9983 44.4328 81.1324 44.567 81.1324 44.8358V47.3746C81.1324 47.6434 80.9983 47.7776 80.7295 47.7776H63.1993ZM94.4843 48.1C92.4154 48.1 90.6156 47.7776 89.0843 47.1328C87.5795 46.4881 86.4108 45.5745 85.5782 44.3925C84.7722 43.2105 84.3693 41.8267 84.3693 40.2417V39.073C84.3693 38.8042 84.5034 38.67 84.7722 38.67H87.7141C87.9825 38.67 88.1171 38.8042 88.1171 39.073V40.0402C88.1171 41.4104 88.7079 42.5387 89.8902 43.4253C91.0722 44.3119 92.6975 44.7552 94.7664 44.7552C96.6202 44.7552 98.017 44.3655 98.9575 43.5865C99.8977 42.8075 100.368 41.7864 100.368 40.5238C100.368 39.6908 100.126 38.9791 99.6426 38.3879C99.159 37.7967 98.4469 37.2596 97.5068 36.776C96.5932 36.2654 95.25 35.6609 93.4769 34.9625C91.5155 34.2101 89.9571 33.525 88.8022 32.9073C87.6738 32.2895 86.7332 31.4835 85.9812 30.4893C85.2288 29.4685 84.8528 28.1923 84.8528 26.6609C84.8528 24.3505 85.6721 22.5371 87.3111 21.2205C88.9767 19.9039 91.2201 19.2458 94.041 19.2458C96.029 19.2458 97.7752 19.5815 99.2799 20.2533C100.784 20.9251 101.94 21.8653 102.746 23.0743C103.578 24.2832 103.995 25.6804 103.995 27.2654V28.0714C103.995 28.3401 103.86 28.4743 103.592 28.4743H100.57C100.301 28.4743 100.167 28.3401 100.167 28.0714V27.4669C100.167 26.0697 99.6023 24.9147 98.474 24.0011C97.3722 23.061 95.8408 22.5907 93.8798 22.5907C92.2139 22.5907 90.9243 22.9401 90.0111 23.6385C89.0975 24.3102 88.641 25.2907 88.641 26.5803C88.641 27.4669 88.869 28.1923 89.326 28.7564C89.7826 29.3206 90.4544 29.8312 91.341 30.2878C92.2542 30.7178 93.6381 31.282 95.4918 31.9804C97.3992 32.7328 98.9438 33.4311 100.126 34.0759C101.308 34.6937 102.289 35.5267 103.068 36.5745C103.847 37.5952 104.237 38.8715 104.237 40.4029C104.237 42.7672 103.363 44.6476 101.617 46.0448C99.8977 47.4149 97.5201 48.1 94.4843 48.1ZM120.513 19.5279C122.152 19.5279 123.589 19.8773 124.825 20.5757C126.088 21.2475 127.055 22.201 127.727 23.437C128.425 24.6729 128.774 26.0967 128.774 27.7087C128.774 29.3206 128.425 30.7311 127.727 31.9401C127.028 33.149 126.034 34.0892 124.744 34.761C123.482 35.4328 122.017 35.7685 120.352 35.7685H113.259C113.152 35.7685 113.098 35.8221 113.098 35.9297V47.3746C113.098 47.6434 112.964 47.7776 112.695 47.7776H109.632C109.363 47.7776 109.229 47.6434 109.229 47.3746V19.9309C109.229 19.6621 109.363 19.5279 109.632 19.5279H120.513ZM119.989 32.6252C121.467 32.6252 122.649 32.1819 123.535 31.2953C124.449 30.4087 124.906 29.24 124.906 27.7893C124.906 26.3115 124.449 25.1295 123.535 24.2429C122.649 23.3293 121.467 22.8728 119.989 22.8728H113.259C113.152 22.8728 113.098 22.9264 113.098 23.034V32.464C113.098 32.5716 113.152 32.6252 113.259 32.6252H119.989ZM142.547 48.1403C140.586 48.1403 138.853 47.7373 137.349 46.9314C135.845 46.1254 134.676 44.997 133.843 43.5462C133.01 42.0684 132.594 40.3759 132.594 38.4685V28.8773C132.594 26.97 133.01 25.2907 133.843 23.8399C134.676 22.3892 135.845 21.2608 137.349 20.4548C138.853 19.6488 140.586 19.2458 142.547 19.2458C144.535 19.2458 146.282 19.6488 147.786 20.4548C149.291 21.2608 150.459 22.3892 151.292 23.8399C152.125 25.2907 152.542 26.97 152.542 28.8773V38.4685C152.542 40.3759 152.125 42.0684 151.292 43.5462C150.459 44.997 149.291 46.1254 147.786 46.9314C146.282 47.7373 144.535 48.1403 142.547 48.1403ZM142.547 44.7955C144.374 44.7955 145.852 44.2313 146.98 43.1029C148.109 41.9746 148.673 40.4835 148.673 38.6297V28.837C148.673 26.9563 148.109 25.4519 146.98 24.3235C145.852 23.1682 144.374 22.5907 142.547 22.5907C140.721 22.5907 139.243 23.1682 138.115 24.3235C137.013 25.4519 136.462 26.9563 136.462 28.837V38.6297C136.462 40.4835 137.013 41.9746 138.115 43.1029C139.243 44.2313 140.721 44.7955 142.547 44.7955ZM158.831 47.7776C158.562 47.7776 158.428 47.6434 158.428 47.3746V19.9712C158.428 19.7024 158.562 19.5682 158.831 19.5682H161.894C162.162 19.5682 162.297 19.7024 162.297 19.9712V32.8267C162.297 32.8802 162.324 32.9205 162.378 32.9475C162.431 32.9475 162.471 32.9205 162.498 32.8669L174.024 19.81C174.131 19.6488 174.292 19.5682 174.508 19.5682H178.014C178.175 19.5682 178.282 19.6218 178.336 19.7294C178.39 19.81 178.363 19.9176 178.255 20.0518L168.664 31.3759C168.637 31.4565 168.637 31.5371 168.664 31.6177L178.94 47.294C178.994 47.4016 179.021 47.4822 179.021 47.5358C179.021 47.697 178.914 47.7776 178.699 47.7776H175.193C175.004 47.7776 174.843 47.697 174.709 47.5358L166.004 34.358C165.977 34.3044 165.937 34.2774 165.884 34.2774C165.83 34.2774 165.789 34.2907 165.763 34.3177L162.378 38.1058C162.324 38.2134 162.297 38.2803 162.297 38.3073V47.3746C162.297 47.6434 162.162 47.7776 161.894 47.7776H158.831ZM202 22.5101C202 22.7789 201.866 22.9131 201.597 22.9131H187.291C187.184 22.9131 187.13 22.9667 187.13 23.0743V31.7386C187.13 31.8462 187.184 31.8998 187.291 31.8998H197.124C197.393 31.8998 197.527 32.034 197.527 32.3028V34.8416C197.527 35.1104 197.393 35.2446 197.124 35.2446H187.291C187.184 35.2446 187.13 35.2982 187.13 35.4058V44.2716C187.13 44.3792 187.184 44.4328 187.291 44.4328H201.597C201.866 44.4328 202 44.567 202 44.8358V47.3746C202 47.6434 201.866 47.7776 201.597 47.7776H183.664C183.395 47.7776 183.261 47.6434 183.261 47.3746V19.9712C183.261 19.7024 183.395 19.5682 183.664 19.5682H201.597C201.866 19.5682 202 19.7024 202 19.9712V22.5101Z" fill="#D4B871"/>
<path d="M109.888 59.0615C109.462 59.0615 109.091 58.995 108.775 58.862C108.465 58.7291 108.224 58.5409 108.052 58.297C107.886 58.0531 107.803 57.7681 107.803 57.4412V57.2002C107.803 57.145 107.831 57.1171 107.886 57.1171H108.492C108.548 57.1171 108.575 57.145 108.575 57.2002V57.3996C108.575 57.6821 108.697 57.9148 108.941 58.0976C109.185 58.2804 109.52 58.3718 109.946 58.3718C110.329 58.3718 110.617 58.2916 110.811 58.1308C111.005 57.9701 111.101 57.7598 111.101 57.4993C111.101 57.3278 111.052 57.1807 110.952 57.059C110.852 56.9372 110.706 56.8263 110.511 56.7266C110.323 56.6215 110.046 56.4969 109.681 56.3527C109.276 56.1977 108.955 56.0565 108.717 55.9289C108.484 55.8014 108.29 55.6352 108.135 55.4304C107.98 55.2197 107.902 54.9567 107.902 54.641C107.902 54.1645 108.072 53.7906 108.409 53.5193C108.753 53.248 109.215 53.1121 109.797 53.1121C110.207 53.1121 110.567 53.1815 110.877 53.3199C111.187 53.4582 111.425 53.6522 111.592 53.9015C111.763 54.1508 111.849 54.4387 111.849 54.7656V54.9318C111.849 54.9871 111.821 55.0149 111.766 55.0149H111.143C111.088 55.0149 111.06 54.9871 111.06 54.9318V54.8072C111.06 54.5193 110.944 54.2808 110.711 54.0926C110.484 53.8986 110.168 53.8018 109.764 53.8018C109.42 53.8018 109.154 53.8737 108.966 54.0178C108.778 54.1562 108.683 54.3585 108.683 54.6244C108.683 54.8072 108.73 54.9568 108.825 55.0731C108.919 55.1894 109.057 55.2945 109.24 55.3888C109.428 55.4773 109.714 55.5936 110.096 55.7378C110.489 55.8928 110.808 56.0369 111.052 56.1699C111.295 56.2974 111.497 56.469 111.658 56.685C111.819 56.8957 111.899 57.1587 111.899 57.4744C111.899 57.9617 111.719 58.3498 111.359 58.6377C111.005 58.9202 110.514 59.0615 109.888 59.0615ZM116.726 55.8292C116.831 56.1283 116.884 56.4827 116.884 56.8928C116.884 57.2804 116.839 57.6157 116.751 57.8982C116.634 58.2692 116.443 58.5575 116.177 58.7623C115.912 58.9617 115.571 59.0615 115.155 59.0615C114.967 59.0615 114.787 59.0253 114.615 58.9534C114.449 58.8757 114.305 58.7677 114.183 58.6294C114.172 58.6182 114.161 58.6157 114.15 58.6211C114.145 58.6265 114.142 58.6348 114.142 58.646V60.4989C114.142 60.5542 114.114 60.582 114.059 60.582H113.427C113.372 60.582 113.344 60.5542 113.344 60.4989V54.8487C113.344 54.7935 113.372 54.7656 113.427 54.7656H114.059C114.114 54.7656 114.142 54.7935 114.142 54.8487V55.1229C114.142 55.1342 114.145 55.1425 114.15 55.1479C114.161 55.1533 114.172 55.1508 114.183 55.1396C114.305 55.0012 114.449 54.8932 114.615 54.8155C114.782 54.7378 114.961 54.6992 115.155 54.6992C115.554 54.6992 115.884 54.7989 116.144 54.9983C116.41 55.1923 116.604 55.469 116.726 55.8292ZM115.812 57.973C115.989 57.7071 116.078 57.3415 116.078 56.8762C116.078 56.4495 116.008 56.1063 115.87 55.8458C115.709 55.5413 115.446 55.3888 115.081 55.3888C114.76 55.3888 114.516 55.5384 114.349 55.8375C114.217 56.0756 114.15 56.4246 114.15 56.8845C114.15 57.3498 114.222 57.7042 114.366 57.948C114.527 58.2305 114.762 58.3718 115.072 58.3718C115.405 58.3718 115.651 58.2389 115.812 57.973ZM120.023 59.0615C119.612 59.0615 119.255 58.9588 118.951 58.754C118.646 58.5434 118.433 58.2526 118.311 57.8816C118.211 57.5824 118.161 57.2447 118.161 56.8678C118.161 56.4744 118.208 56.1421 118.303 55.8708C118.424 55.5052 118.638 55.2197 118.942 55.0149C119.247 54.8043 119.61 54.6992 120.031 54.6992C120.43 54.6992 120.776 54.8043 121.069 55.0149C121.369 55.2197 121.582 55.5022 121.709 55.8624C121.809 56.145 121.859 56.4773 121.859 56.8595C121.859 57.2472 121.809 57.5878 121.709 57.8816C121.588 58.2526 121.377 58.5434 121.078 58.754C120.779 58.9588 120.427 59.0615 120.023 59.0615ZM120.023 58.3718C120.244 58.3718 120.438 58.3107 120.604 58.189C120.77 58.0614 120.89 57.8845 120.961 57.6572C121.023 57.4466 121.053 57.1865 121.053 56.8762C121.053 56.5658 121.025 56.3082 120.97 56.1034C120.898 55.8762 120.779 55.7017 120.612 55.5799C120.446 55.4524 120.244 55.3888 120.006 55.3888C119.779 55.3888 119.582 55.4524 119.416 55.5799C119.25 55.7017 119.131 55.8762 119.059 56.1034C118.998 56.2974 118.967 56.555 118.967 56.8762C118.967 57.1973 118.998 57.4578 119.059 57.6572C119.125 57.8845 119.241 58.0614 119.408 58.189C119.579 58.3107 119.784 58.3718 120.023 58.3718ZM125.172 54.7241C125.349 54.7241 125.509 54.7602 125.654 54.8321C125.692 54.8487 125.706 54.882 125.695 54.9318L125.562 55.555C125.556 55.6049 125.523 55.6215 125.462 55.6049C125.368 55.5662 125.257 55.5467 125.13 55.5467L125.014 55.555C124.753 55.5662 124.537 55.6576 124.366 55.8292C124.199 55.9954 124.116 56.2143 124.116 56.4856V58.9119C124.116 58.9671 124.089 58.995 124.033 58.995H123.402C123.346 58.995 123.319 58.9671 123.319 58.9119V54.8487C123.319 54.7935 123.346 54.7656 123.402 54.7656H124.033C124.089 54.7656 124.116 54.7935 124.116 54.8487V55.2891C124.116 55.3057 124.119 55.317 124.125 55.3224C124.136 55.3224 124.144 55.317 124.15 55.3057C124.399 54.9181 124.74 54.7241 125.172 54.7241ZM128.993 55.339C128.993 55.3942 128.965 55.4221 128.909 55.4221H128.012C127.99 55.4221 127.979 55.4333 127.979 55.4553V57.6572C127.979 57.8899 128.031 58.059 128.137 58.1641C128.242 58.2638 128.405 58.3136 128.627 58.3136H128.868C128.923 58.3136 128.951 58.3415 128.951 58.3967V58.9119C128.951 58.9671 128.923 58.995 128.868 58.995C128.691 59.0062 128.563 59.0116 128.486 59.0116C128.064 59.0116 127.746 58.9368 127.53 58.7872C127.32 58.6323 127.214 58.3498 127.214 57.9397V55.4553C127.214 55.4333 127.203 55.4221 127.181 55.4221H126.674C126.619 55.4221 126.591 55.3942 126.591 55.339V54.8487C126.591 54.7935 126.619 54.7656 126.674 54.7656H127.181C127.203 54.7656 127.214 54.7544 127.214 54.7324V53.7519C127.214 53.6967 127.242 53.6688 127.298 53.6688H127.896C127.951 53.6688 127.979 53.6967 127.979 53.7519V54.7324C127.979 54.7544 127.99 54.7656 128.012 54.7656H128.909C128.965 54.7656 128.993 54.7935 128.993 54.8487V55.339ZM131.877 59.0448C131.544 59.0448 131.251 58.995 130.996 58.8953C130.747 58.7956 130.553 58.6597 130.414 58.4881C130.276 58.3107 130.207 58.1171 130.207 57.9065V57.8151C130.207 57.7598 130.234 57.732 130.29 57.732H130.888C130.944 57.732 130.971 57.7598 130.971 57.8151V57.8566C130.971 58.0116 131.054 58.1474 131.22 58.2638C131.392 58.3801 131.608 58.4383 131.868 58.4383C132.118 58.4383 132.32 58.3855 132.475 58.2804C132.63 58.1695 132.708 58.0311 132.708 57.8649C132.708 57.7042 132.636 57.5853 132.492 57.5077C132.348 57.4246 132.115 57.3386 131.794 57.2501C131.478 57.1616 131.212 57.0727 130.996 56.9842C130.786 56.8899 130.605 56.7598 130.456 56.5936C130.312 56.4221 130.24 56.2031 130.24 55.9372C130.24 55.5662 130.384 55.2725 130.672 55.0565C130.966 54.835 131.353 54.7241 131.835 54.7241C132.157 54.7241 132.439 54.7769 132.683 54.882C132.932 54.9817 133.123 55.1229 133.256 55.3057C133.389 55.4885 133.455 55.6934 133.455 55.9206V55.9455C133.455 56.0008 133.428 56.0286 133.372 56.0286H132.791C132.735 56.0286 132.708 56.0008 132.708 55.9455V55.9206C132.708 55.7598 132.627 55.6269 132.467 55.5218C132.312 55.4109 132.099 55.3556 131.827 55.3556C131.583 55.3556 131.384 55.4025 131.229 55.4968C131.079 55.5911 131.004 55.7183 131.004 55.8791C131.004 56.0398 131.077 56.1616 131.22 56.2447C131.37 56.3278 131.608 56.4162 131.935 56.5106C132.256 56.599 132.522 56.688 132.733 56.7764C132.949 56.8595 133.131 56.9871 133.281 57.1587C133.43 57.3248 133.505 57.5438 133.505 57.8151C133.505 58.1919 133.356 58.491 133.057 58.7125C132.763 58.9339 132.37 59.0448 131.877 59.0448ZM141.461 58.8953C141.478 58.9119 141.486 58.9285 141.486 58.9451C141.486 58.9784 141.464 58.995 141.42 58.995H140.705C140.666 58.995 140.633 58.9784 140.605 58.9451L140.182 58.4632C140.171 58.4466 140.154 58.4437 140.132 58.4549C139.872 58.6655 139.603 58.8205 139.326 58.9202C139.049 59.0145 138.755 59.0615 138.445 59.0615C137.946 59.0615 137.537 58.9451 137.215 58.7125C136.9 58.4744 136.742 58.1279 136.742 57.6738C136.742 57.2916 136.847 56.9705 137.057 56.71C137.273 56.4441 137.567 56.1894 137.938 55.9455C137.961 55.9343 137.963 55.9206 137.946 55.904C137.637 55.5272 137.431 55.2422 137.332 55.0482C137.232 54.8487 137.182 54.6439 137.182 54.4333C137.182 54.184 137.243 53.9597 137.365 53.7602C137.492 53.5554 137.67 53.3976 137.897 53.2866C138.129 53.1703 138.393 53.1121 138.686 53.1121C139.14 53.1121 139.514 53.2368 139.808 53.486C140.101 53.7353 140.248 54.0623 140.248 54.4665C140.248 54.8043 140.146 55.1009 139.941 55.3556C139.741 55.6049 139.465 55.8487 139.11 56.0868C139.088 56.0922 139.085 56.1063 139.101 56.1283C139.312 56.383 139.658 56.7848 140.14 57.3332L140.173 57.3747C140.179 57.3859 140.187 57.3913 140.198 57.3913C140.209 57.3913 140.218 57.3884 140.223 57.383C140.467 57.0785 140.647 56.8429 140.763 56.6767C140.791 56.6323 140.827 56.624 140.871 56.6518L141.345 56.9177C141.395 56.9455 141.403 56.9842 141.37 57.034C141.126 57.405 140.896 57.7042 140.68 57.9314V57.948C140.68 57.9593 140.688 57.9784 140.705 58.0062C140.899 58.2388 141.151 58.5351 141.461 58.8953ZM138.711 53.8433C138.489 53.8433 138.312 53.9044 138.179 54.0261C138.046 54.1425 137.98 54.3003 137.98 54.4998C137.98 54.6107 138.016 54.7324 138.088 54.8654C138.165 54.9929 138.326 55.2089 138.57 55.5135C138.586 55.5301 138.603 55.533 138.62 55.5218C138.891 55.3444 139.096 55.1757 139.234 55.0149C139.379 54.8541 139.45 54.6772 139.45 54.4831C139.45 54.2891 139.381 54.1341 139.243 54.0178C139.104 53.9015 138.927 53.8433 138.711 53.8433ZM138.453 58.3801C138.847 58.3801 139.249 58.2276 139.658 57.9231C139.675 57.9065 139.675 57.8899 139.658 57.8732L139.376 57.5326C139.209 57.3444 139.11 57.2334 139.077 57.2002L138.47 56.5189C138.465 56.5022 138.451 56.4993 138.428 56.5106C138.14 56.6988 137.922 56.8816 137.772 57.059C137.622 57.2364 137.548 57.4383 137.548 57.6655C137.548 57.887 137.628 58.0614 137.789 58.189C137.955 58.3165 138.177 58.3801 138.453 58.3801ZM148.998 53.7852C148.998 53.8404 148.97 53.8683 148.914 53.8683H145.965C145.943 53.8683 145.932 53.8795 145.932 53.9015V55.688C145.932 55.71 145.943 55.7212 145.965 55.7212H147.992C148.048 55.7212 148.075 55.749 148.075 55.8043V56.3277C148.075 56.383 148.048 56.4108 147.992 56.4108H145.965C145.943 56.4108 145.932 56.4221 145.932 56.4441V58.2721C145.932 58.2941 145.943 58.3053 145.965 58.3053H148.914C148.97 58.3053 148.998 58.3332 148.998 58.3884V58.9119C148.998 58.9671 148.97 58.995 148.914 58.995H145.217C145.162 58.995 145.134 58.9671 145.134 58.9119V53.2617C145.134 53.2064 145.162 53.1786 145.217 53.1786H148.914C148.97 53.1786 148.998 53.2064 148.998 53.2617V53.7852ZM152.302 54.7075C152.756 54.7075 153.116 54.8404 153.382 55.1063C153.648 55.3668 153.781 55.7212 153.781 56.1699V58.9119C153.781 58.9671 153.753 58.995 153.698 58.995H153.066C153.011 58.995 152.983 58.9671 152.983 58.9119V56.3277C152.983 56.0506 152.903 55.8263 152.742 55.6547C152.582 55.4831 152.368 55.3971 152.102 55.3971C151.842 55.3971 151.629 55.4831 151.462 55.6547C151.296 55.8263 151.213 56.0482 151.213 56.3194V58.9119C151.213 58.9671 151.186 58.995 151.13 58.995H150.499C150.443 58.995 150.416 58.9671 150.416 58.9119V54.8487C150.416 54.7935 150.443 54.7656 150.499 54.7656H151.13C151.186 54.7656 151.213 54.7935 151.213 54.8487V55.1479C151.213 55.1591 151.216 55.1674 151.222 55.1728C151.233 55.1782 151.241 55.1757 151.246 55.1645C151.485 54.86 151.836 54.7075 152.302 54.7075ZM157.42 55.339C157.42 55.3942 157.393 55.4221 157.337 55.4221H156.44C156.418 55.4221 156.406 55.4333 156.406 55.4553V57.6572C156.406 57.8899 156.459 58.059 156.564 58.1641C156.67 58.2638 156.833 58.3136 157.055 58.3136H157.295C157.351 58.3136 157.379 58.3415 157.379 58.3967V58.9119C157.379 58.9671 157.351 58.995 157.295 58.995C157.118 59.0062 156.991 59.0116 156.913 59.0116C156.492 59.0116 156.174 58.9368 155.958 58.7872C155.747 58.6323 155.642 58.3498 155.642 57.9397V55.4553C155.642 55.4333 155.631 55.4221 155.609 55.4221H155.102C155.047 55.4221 155.019 55.3942 155.019 55.339V54.8487C155.019 54.7935 155.047 54.7656 155.102 54.7656H155.609C155.631 54.7656 155.642 54.7544 155.642 54.7324V53.7519C155.642 53.6967 155.67 53.6688 155.725 53.6688H156.323C156.379 53.6688 156.406 53.6967 156.406 53.7519V54.7324C156.406 54.7544 156.418 54.7656 156.44 54.7656H157.337C157.393 54.7656 157.42 54.7935 157.42 54.8487V55.339ZM162.143 56.3527C162.165 56.5799 162.174 56.8346 162.168 57.1171C162.168 57.1724 162.14 57.2002 162.085 57.2002H159.435C159.412 57.2002 159.401 57.2114 159.401 57.2335C159.401 57.4217 159.418 57.5658 159.451 57.6655C159.512 57.887 159.634 58.0614 159.817 58.189C160.005 58.3107 160.241 58.3718 160.523 58.3718C160.933 58.3718 161.249 58.2027 161.47 57.8649C161.498 57.8097 161.534 57.8014 161.578 57.84L162.052 58.1558C162.091 58.189 162.099 58.2251 162.077 58.2638C161.922 58.513 161.7 58.7096 161.412 58.8537C161.13 58.9979 160.808 59.0698 160.448 59.0698C160.044 59.0698 159.703 58.9813 159.426 58.8039C159.149 58.6265 158.941 58.3747 158.803 58.0477C158.67 57.7208 158.604 57.3248 158.604 56.8595C158.604 56.4553 158.634 56.1479 158.695 55.9372C158.795 55.555 158.994 55.253 159.293 55.0315C159.593 54.8101 159.955 54.6992 160.382 54.6992C160.941 54.6992 161.359 54.8404 161.637 55.1229C161.913 55.4 162.082 55.8097 162.143 56.3527ZM160.382 55.3888C160.143 55.3888 159.947 55.4499 159.792 55.5716C159.637 55.688 159.531 55.8458 159.476 56.0452C159.437 56.167 159.412 56.3223 159.401 56.5106C159.401 56.5326 159.412 56.5438 159.435 56.5438H161.337C161.359 56.5438 161.371 56.5326 161.371 56.5106C161.359 56.3278 161.343 56.1919 161.321 56.1034C161.265 55.8874 161.155 55.7158 160.988 55.5882C160.828 55.4553 160.625 55.3888 160.382 55.3888ZM165.443 54.7241C165.62 54.7241 165.781 54.7602 165.925 54.8321C165.964 54.8487 165.978 54.882 165.966 54.9318L165.833 55.555C165.828 55.6049 165.795 55.6215 165.734 55.6049C165.64 55.5662 165.529 55.5467 165.401 55.5467L165.285 55.555C165.025 55.5662 164.809 55.6576 164.637 55.8292C164.471 55.9954 164.388 56.2143 164.388 56.4856V58.9119C164.388 58.9671 164.36 58.995 164.305 58.995H163.673C163.618 58.995 163.59 58.9671 163.59 58.9119V54.8487C163.59 54.7935 163.618 54.7656 163.673 54.7656H164.305C164.36 54.7656 164.388 54.7935 164.388 54.8487V55.2891C164.388 55.3057 164.391 55.317 164.396 55.3224C164.407 55.3224 164.416 55.317 164.421 55.3057C164.67 54.9181 165.011 54.7241 165.443 54.7241ZM169.264 55.339C169.264 55.3942 169.236 55.4221 169.181 55.4221H168.283C168.261 55.4221 168.25 55.4333 168.25 55.4553V57.6572C168.25 57.8899 168.303 58.059 168.408 58.1641C168.513 58.2638 168.677 58.3136 168.898 58.3136H169.139C169.194 58.3136 169.222 58.3415 169.222 58.3967V58.9119C169.222 58.9671 169.194 58.995 169.139 58.995C168.962 59.0062 168.835 59.0116 168.757 59.0116C168.336 59.0116 168.018 58.9368 167.801 58.7872C167.591 58.6323 167.486 58.3498 167.486 57.9397V55.4553C167.486 55.4333 167.475 55.4221 167.452 55.4221H166.946C166.89 55.4221 166.863 55.3942 166.863 55.339V54.8487C166.863 54.7935 166.89 54.7656 166.946 54.7656H167.452C167.475 54.7656 167.486 54.7544 167.486 54.7324V53.7519C167.486 53.6967 167.514 53.6688 167.569 53.6688H168.167C168.222 53.6688 168.25 53.6967 168.25 53.7519V54.7324C168.25 54.7544 168.261 54.7656 168.283 54.7656H169.181C169.236 54.7656 169.264 54.7935 169.264 54.8487V55.339ZM172.207 54.6992C172.544 54.6992 172.838 54.7602 173.087 54.882C173.342 54.9983 173.536 55.1645 173.669 55.3805C173.807 55.5911 173.877 55.8321 173.877 56.1034V58.9119C173.877 58.9671 173.849 58.995 173.794 58.995H173.162C173.107 58.995 173.079 58.9671 173.079 58.9119V58.6128C173.079 58.5849 173.065 58.5795 173.037 58.5961C172.893 58.7457 172.716 58.862 172.506 58.9451C172.301 59.0228 172.071 59.0615 171.816 59.0615C171.406 59.0615 171.065 58.9588 170.794 58.754C170.528 58.5434 170.395 58.2276 170.395 57.8068C170.395 57.3747 170.545 57.0369 170.844 56.7931C171.148 56.5438 171.572 56.4192 172.115 56.4192H173.046C173.068 56.4192 173.079 56.4079 173.079 56.3859V56.1616C173.079 55.9177 173.007 55.7295 172.863 55.5966C172.725 55.4582 172.511 55.3888 172.223 55.3888C171.991 55.3888 171.799 55.4358 171.65 55.5301C171.506 55.6186 171.417 55.7407 171.384 55.8957C171.367 55.9509 171.334 55.9759 171.284 55.9705L170.611 55.8791C170.556 55.8678 170.531 55.8458 170.536 55.8126C170.581 55.4856 170.755 55.2197 171.06 55.0149C171.364 54.8043 171.747 54.6992 172.207 54.6992ZM171.991 58.3884C172.284 58.3884 172.539 58.3107 172.755 58.1558C172.971 58.0008 173.079 57.8039 173.079 57.5658V57.0756C173.079 57.0536 173.068 57.0423 173.046 57.0423H172.265C171.938 57.0423 171.678 57.1059 171.484 57.2335C171.29 57.361 171.193 57.538 171.193 57.7652C171.193 57.9701 171.265 58.1254 171.409 58.2305C171.558 58.3357 171.752 58.3884 171.991 58.3884ZM175.851 54.1009C175.696 54.1009 175.568 54.0511 175.469 53.9513C175.369 53.8516 175.319 53.7241 175.319 53.5691C175.319 53.4142 175.369 53.2866 175.469 53.1869C175.568 53.0872 175.696 53.0374 175.851 53.0374C176.006 53.0374 176.133 53.0872 176.233 53.1869C176.333 53.2866 176.383 53.4142 176.383 53.5691C176.383 53.7241 176.333 53.8516 176.233 53.9513C176.133 54.0511 176.006 54.1009 175.851 54.1009ZM175.519 58.9867C175.463 58.9867 175.435 58.9588 175.435 58.9036V54.8487C175.435 54.7935 175.463 54.7656 175.519 54.7656H176.15C176.205 54.7656 176.233 54.7935 176.233 54.8487V58.9036C176.233 58.9588 176.205 58.9867 176.15 58.9867H175.519ZM179.789 54.7075C180.243 54.7075 180.603 54.8404 180.869 55.1063C181.135 55.3668 181.268 55.7212 181.268 56.1699V58.9119C181.268 58.9671 181.24 58.995 181.185 58.995H180.553C180.497 58.995 180.47 58.9671 180.47 58.9119V56.3277C180.47 56.0506 180.389 55.8263 180.229 55.6547C180.068 55.4831 179.855 55.3971 179.589 55.3971C179.329 55.3971 179.116 55.4831 178.949 55.6547C178.783 55.8263 178.7 56.0482 178.7 56.3194V58.9119C178.7 58.9671 178.672 58.995 178.617 58.995H177.986C177.93 58.995 177.902 58.9671 177.902 58.9119V54.8487C177.902 54.7935 177.93 54.7656 177.986 54.7656H178.617C178.672 54.7656 178.7 54.7935 178.7 54.8487V55.1479C178.7 55.1591 178.703 55.1674 178.708 55.1728C178.719 55.1782 178.728 55.1757 178.733 55.1645C178.971 54.86 179.323 54.7075 179.789 54.7075ZM187.217 54.7075C187.638 54.7075 187.97 54.835 188.214 55.0897C188.457 55.339 188.579 55.688 188.579 56.1366V58.9119C188.579 58.9671 188.552 58.995 188.496 58.995H187.873C187.818 58.995 187.79 58.9671 187.79 58.9119V56.3028C187.79 56.0257 187.713 55.8072 187.557 55.6464C187.408 55.4802 187.206 55.3971 186.951 55.3971C186.696 55.3971 186.488 55.4773 186.327 55.6381C186.167 55.7989 186.086 56.0149 186.086 56.2862V58.9119C186.086 58.9671 186.059 58.995 186.003 58.995H185.38C185.325 58.995 185.297 58.9671 185.297 58.9119V56.3028C185.297 56.0257 185.22 55.8072 185.064 55.6464C184.915 55.4802 184.713 55.3971 184.458 55.3971C184.203 55.3971 183.998 55.4773 183.843 55.6381C183.693 55.7989 183.619 56.0149 183.619 56.2862V58.9119C183.619 58.9671 183.591 58.995 183.536 58.995H182.904C182.849 58.995 182.821 58.9671 182.821 58.9119V54.8487C182.821 54.7935 182.849 54.7656 182.904 54.7656H183.536C183.591 54.7656 183.619 54.7935 183.619 54.8487V55.1313C183.619 55.1425 183.622 55.1508 183.627 55.1562C183.638 55.1616 183.649 55.1591 183.66 55.1479C183.904 54.8541 184.258 54.7075 184.724 54.7075C185.006 54.7075 185.247 54.7627 185.447 54.8737C185.646 54.9788 185.801 55.1366 185.912 55.3473C185.929 55.3693 185.945 55.3693 185.962 55.3473C186.095 55.1312 186.269 54.9705 186.485 54.8654C186.707 54.7602 186.951 54.7075 187.217 54.7075ZM193.476 56.3527C193.498 56.5799 193.507 56.8346 193.501 57.1171C193.501 57.1724 193.473 57.2002 193.418 57.2002H190.767C190.745 57.2002 190.734 57.2114 190.734 57.2335C190.734 57.4217 190.751 57.5658 190.784 57.6655C190.845 57.887 190.967 58.0614 191.15 58.189C191.338 58.3107 191.573 58.3718 191.856 58.3718C192.266 58.3718 192.581 58.2027 192.803 57.8649C192.831 57.8097 192.867 57.8014 192.911 57.84L193.385 58.1558C193.423 58.189 193.432 58.2251 193.41 58.2638C193.254 58.513 193.033 58.7096 192.745 58.8537C192.462 58.9979 192.141 59.0698 191.781 59.0698C191.376 59.0698 191.036 58.9813 190.759 58.8039C190.482 58.6265 190.274 58.3747 190.136 58.0477C190.003 57.7208 189.937 57.3248 189.937 56.8595C189.937 56.4553 189.967 56.1479 190.028 55.9372C190.128 55.555 190.327 55.253 190.626 55.0315C190.925 54.8101 191.288 54.6992 191.715 54.6992C192.274 54.6992 192.692 54.8404 192.969 55.1229C193.246 55.4 193.415 55.8097 193.476 56.3527ZM191.715 55.3888C191.476 55.3888 191.28 55.4499 191.125 55.5716C190.969 55.688 190.864 55.8458 190.809 56.0452C190.77 56.167 190.745 56.3223 190.734 56.5106C190.734 56.5326 190.745 56.5438 190.767 56.5438H192.67C192.692 56.5438 192.703 56.5326 192.703 56.5106C192.692 56.3278 192.676 56.1919 192.654 56.1034C192.598 55.8874 192.487 55.7158 192.321 55.5882C192.16 55.4553 191.958 55.3888 191.715 55.3888ZM196.809 54.7075C197.263 54.7075 197.623 54.8404 197.889 55.1063C198.155 55.3668 198.288 55.7212 198.288 56.1699V58.9119C198.288 58.9671 198.261 58.995 198.205 58.995H197.573C197.518 58.995 197.49 58.9671 197.49 58.9119V56.3277C197.49 56.0506 197.41 55.8263 197.249 55.6547C197.089 55.4831 196.875 55.3971 196.61 55.3971C196.349 55.3971 196.136 55.4831 195.97 55.6547C195.804 55.8263 195.72 56.0482 195.72 56.3194V58.9119C195.72 58.9671 195.693 58.995 195.637 58.995H195.006C194.951 58.995 194.923 58.9671 194.923 58.9119V54.8487C194.923 54.7935 194.951 54.7656 195.006 54.7656H195.637C195.693 54.7656 195.72 54.7935 195.72 54.8487V55.1479C195.72 55.1591 195.723 55.1674 195.729 55.1728C195.74 55.1782 195.748 55.1757 195.754 55.1645C195.992 54.86 196.344 54.7075 196.809 54.7075ZM201.927 55.339C201.927 55.3942 201.9 55.4221 201.844 55.4221H200.947C200.925 55.4221 200.914 55.4333 200.914 55.4553V57.6572C200.914 57.8899 200.966 58.059 201.072 58.1641C201.177 58.2638 201.34 58.3136 201.562 58.3136H201.803C201.858 58.3136 201.886 58.3415 201.886 58.3967V58.9119C201.886 58.9671 201.858 58.995 201.803 58.995C201.626 59.0062 201.498 59.0116 201.421 59.0116C201 59.0116 200.681 58.9368 200.465 58.7872C200.255 58.6323 200.149 58.3498 200.149 57.9397V55.4553C200.149 55.4333 200.138 55.4221 200.116 55.4221H199.609C199.554 55.4221 199.526 55.3942 199.526 55.339V54.8487C199.526 54.7935 199.554 54.7656 199.609 54.7656H200.116C200.138 54.7656 200.149 54.7544 200.149 54.7324V53.7519C200.149 53.6967 200.177 53.6688 200.232 53.6688H200.831C200.886 53.6688 200.914 53.6967 200.914 53.7519V54.7324C200.914 54.7544 200.925 54.7656 200.947 54.7656H201.844C201.9 54.7656 201.927 54.7935 201.927 54.8487V55.339Z" fill="#D4B871"/>
<path d="M7.06273 46.9467H0L15.5796 32.4058H22.4346H29.4973L45.2846 47.3621H38.2219L22.4346 32.4058L7.06273 46.9467Z" fill="#79683E"/>
<path d="M10.8027 0L22.02 13.7935V36.1446L10.8027 46.9464V0Z" fill="#A69059"/>
<path d="M7.06273 46.9464H0V0H7.06273V46.9464Z" fill="#D4B871"/>
<path d="M45.2854 47.3622H38.2227V18.6958H45.2854V47.3622Z" fill="#D4B871"/>
</svg>
