<svg width="62" height="44" viewBox="0 0 62 44" fill="none" xmlns="http://www.w3.org/2000/svg">
<path d="M30.8196 0.226074C30.8196 0.226074 11.5429 0.226091 6.70467 1.48327C4.11413 2.20709 1.98103 4.34022 1.2572 6.96886C2.74801e-05 11.8071 0 21.8266 0 21.8266C0 21.8266 2.74801e-05 31.8841 1.2572 36.6462C1.98103 39.2748 4.07604 41.3698 6.70467 42.0936C11.581 43.3889 30.8196 43.389 30.8196 43.389C30.8196 43.389 50.1345 43.3889 54.9726 42.1318C57.6012 41.4079 59.6962 39.351 60.3819 36.6843C61.6772 31.8841 61.6772 21.8647 61.6772 21.8647C61.6772 21.8647 61.7153 11.8071 60.3819 6.96886C59.6962 4.34022 57.6012 2.24524 54.9726 1.5595C50.1345 0.226135 30.8196 0.226074 30.8196 0.226074ZM24.686 12.5694L40.7247 21.8266L24.686 31.0456V12.5694Z" fill="#FF0000"/>
</svg>
